<mxfile host="app.diagrams.net" modified="2020-11-19T08:32:54.531Z" agent="5.0 (Windows NT 10.0; Win64; x64) AppleWebKit/537.36 (KHTML, like Gecko) Chrome/86.0.4240.198 Safari/537.36" etag="ak-TScoWuD-uS31BQuZr" version="13.9.9" type="github">
  <diagram name="Page-1" id="0783ab3e-0a74-02c8-0abd-f7b4e66b4bec">
    <mxGraphModel dx="1158" dy="1753" grid="1" gridSize="10" guides="1" tooltips="1" connect="1" arrows="1" fold="1" page="1" pageScale="1" pageWidth="850" pageHeight="1100" background="#ffffff" math="0" shadow="0">
      <root>
        <mxCell id="0" />
        <mxCell id="1" parent="0" />
        <mxCell id="bwNq5nRPrB04uEK8HV7U-5" style="edgeStyle=orthogonalEdgeStyle;rounded=0;orthogonalLoop=1;jettySize=auto;html=1;exitX=1;exitY=0.5;exitDx=0;exitDy=0;" edge="1" parent="1" source="bwNq5nRPrB04uEK8HV7U-2" target="bwNq5nRPrB04uEK8HV7U-4">
          <mxGeometry relative="1" as="geometry" />
        </mxCell>
        <mxCell id="bwNq5nRPrB04uEK8HV7U-14" value="127.0.0.1:&lt;span style=&quot;color: rgb(0 , 0 , 255)&quot;&gt;&lt;font style=&quot;font-size: 10px&quot;&gt;1883&lt;/font&gt;&lt;/span&gt;" style="edgeLabel;html=1;align=center;verticalAlign=middle;resizable=0;points=[];" vertex="1" connectable="0" parent="bwNq5nRPrB04uEK8HV7U-5">
          <mxGeometry x="-0.2473" y="1" relative="1" as="geometry">
            <mxPoint as="offset" />
          </mxGeometry>
        </mxCell>
        <mxCell id="bwNq5nRPrB04uEK8HV7U-2" value="边缘设备" style="rounded=0;whiteSpace=wrap;html=1;" vertex="1" parent="1">
          <mxGeometry x="30" y="60" width="120" height="60" as="geometry" />
        </mxCell>
        <mxCell id="bwNq5nRPrB04uEK8HV7U-18" style="edgeStyle=none;rounded=0;orthogonalLoop=1;jettySize=auto;html=1;exitX=1;exitY=0.5;exitDx=0;exitDy=0;" edge="1" parent="1" source="bwNq5nRPrB04uEK8HV7U-4" target="bwNq5nRPrB04uEK8HV7U-6">
          <mxGeometry relative="1" as="geometry" />
        </mxCell>
        <mxCell id="bwNq5nRPrB04uEK8HV7U-4" value="EMQ&lt;br&gt;(mqtt)" style="ellipse;whiteSpace=wrap;html=1;" vertex="1" parent="1">
          <mxGeometry x="270" y="50" width="120" height="80" as="geometry" />
        </mxCell>
        <mxCell id="bwNq5nRPrB04uEK8HV7U-11" style="edgeStyle=none;rounded=0;orthogonalLoop=1;jettySize=auto;html=1;exitX=1;exitY=0.5;exitDx=0;exitDy=0;" edge="1" parent="1" source="bwNq5nRPrB04uEK8HV7U-6" target="bwNq5nRPrB04uEK8HV7U-10">
          <mxGeometry relative="1" as="geometry" />
        </mxCell>
        <mxCell id="bwNq5nRPrB04uEK8HV7U-13" style="edgeStyle=none;rounded=0;orthogonalLoop=1;jettySize=auto;html=1;exitX=0.5;exitY=1;exitDx=0;exitDy=0;entryX=0.5;entryY=0;entryDx=0;entryDy=0;" edge="1" parent="1" source="bwNq5nRPrB04uEK8HV7U-6" target="bwNq5nRPrB04uEK8HV7U-12">
          <mxGeometry relative="1" as="geometry" />
        </mxCell>
        <mxCell id="bwNq5nRPrB04uEK8HV7U-6" value="规则管理&lt;br&gt;系统&lt;br&gt;类似EMQ的额外功能" style="rounded=0;whiteSpace=wrap;html=1;" vertex="1" parent="1">
          <mxGeometry x="520" y="60" width="120" height="60" as="geometry" />
        </mxCell>
        <mxCell id="bwNq5nRPrB04uEK8HV7U-9" style="edgeStyle=orthogonalEdgeStyle;rounded=0;orthogonalLoop=1;jettySize=auto;html=1;exitX=0.5;exitY=1;exitDx=0;exitDy=0;" edge="1" parent="1" source="bwNq5nRPrB04uEK8HV7U-8" target="bwNq5nRPrB04uEK8HV7U-6">
          <mxGeometry relative="1" as="geometry" />
        </mxCell>
        <mxCell id="bwNq5nRPrB04uEK8HV7U-8" value="该系统主要为订阅mqtt,通过相关操作定制数据库存放规则，（可以直接存放，也可以通过条件筛选进行存放）" style="whiteSpace=wrap;html=1;aspect=fixed;" vertex="1" parent="1">
          <mxGeometry x="510" y="-100" width="140" height="140" as="geometry" />
        </mxCell>
        <mxCell id="bwNq5nRPrB04uEK8HV7U-10" value="时序数据库" style="rounded=0;whiteSpace=wrap;html=1;" vertex="1" parent="1">
          <mxGeometry x="730" y="60" width="120" height="60" as="geometry" />
        </mxCell>
        <mxCell id="bwNq5nRPrB04uEK8HV7U-12" value="元数据支撑（记录存放位置，加密方式等）" style="whiteSpace=wrap;html=1;aspect=fixed;" vertex="1" parent="1">
          <mxGeometry x="540" y="150" width="80" height="80" as="geometry" />
        </mxCell>
        <mxCell id="bwNq5nRPrB04uEK8HV7U-15" value="&lt;span style=&quot;font-size: 11px ; background-color: rgb(255 , 255 , 255)&quot;&gt;127.0.0.1:&lt;/span&gt;&lt;span style=&quot;font-size: 11px ; color: rgb(0 , 0 , 255)&quot;&gt;&lt;font style=&quot;font-size: 10px&quot;&gt;1883&lt;/font&gt;&lt;/span&gt;" style="text;html=1;align=center;verticalAlign=middle;resizable=0;points=[];autosize=1;" vertex="1" parent="1">
          <mxGeometry x="400" y="80" width="100" height="20" as="geometry" />
        </mxCell>
        <mxCell id="bwNq5nRPrB04uEK8HV7U-19" value="数控" style="rounded=0;whiteSpace=wrap;html=1;" vertex="1" parent="1">
          <mxGeometry x="80" y="-120" width="120" height="60" as="geometry" />
        </mxCell>
      </root>
    </mxGraphModel>
  </diagram>
</mxfile>
